<svg id="Hochschule_Konstanz" data-name="Hochschule Konstanz" xmlns="http://www.w3.org/2000/svg" xmlns:xlink="http://www.w3.org/1999/xlink" viewBox="0 0 321.25 93"><defs><style>.cls-1{clip-path:url(#clip-path);}.cls-2{clip-path:url(#clip-path-2);}.cls-3{clip-path:url(#clip-path-3);}.cls-4{clip-path:url(#clip-path-4);}.cls-5{clip-path:url(#clip-path-5);}.cls-6{clip-path:url(#clip-path-6);}.cls-7{clip-path:url(#clip-path-7);}.cls-8{clip-path:url(#clip-path-8);}.cls-9{clip-path:url(#clip-path-9);}.cls-10{clip-path:url(#clip-path-10);}.cls-11{clip-path:url(#clip-path-11);}.cls-12{clip-path:url(#clip-path-12);}.cls-13{clip-path:url(#clip-path-13);}.cls-14{clip-path:url(#clip-path-14);}.cls-15{clip-path:url(#clip-path-15);}.cls-16{clip-path:url(#clip-path-16);}.cls-17{clip-path:url(#clip-path-17);}.cls-18{clip-path:url(#clip-path-18);}.cls-19{clip-path:url(#clip-path-19);}.cls-20{clip-path:url(#clip-path-20);}.cls-21{clip-path:url(#clip-path-21);}.cls-22{clip-path:url(#clip-path-22);}.cls-23{clip-path:url(#clip-path-23);}.cls-24{clip-path:url(#clip-path-24);}.cls-25{clip-path:url(#clip-path-25);}.cls-26{clip-path:url(#clip-path-26);}.cls-27{clip-path:url(#clip-path-27);}.cls-28{clip-path:url(#clip-path-28);}.cls-29{clip-path:url(#clip-path-29);}.cls-30{clip-path:url(#clip-path-30);}.cls-31{clip-path:url(#clip-path-31);}.cls-32{clip-path:url(#clip-path-32);}.cls-33{clip-path:url(#clip-path-33);}.cls-34{clip-path:url(#clip-path-34);}.cls-35{clip-path:url(#clip-path-35);}.cls-36{clip-path:url(#clip-path-36);}.cls-37{clip-path:url(#clip-path-37);}.cls-38{clip-path:url(#clip-path-38);}.cls-39{clip-path:url(#clip-path-39);}.cls-40{clip-path:url(#clip-path-40);}.cls-41{clip-path:url(#clip-path-41);}.cls-42{clip-path:url(#clip-path-42);}.cls-43{clip-path:url(#clip-path-43);}.cls-44{clip-path:url(#clip-path-44);}.cls-45{clip-path:url(#clip-path-45);}.cls-46{clip-path:url(#clip-path-46);}.cls-47{clip-path:url(#clip-path-47);}.cls-48{clip-path:url(#clip-path-48);}.cls-49{clip-path:url(#clip-path-49);}.cls-50{clip-path:url(#clip-path-50);}.cls-51{clip-path:url(#clip-path-51);}.cls-52{clip-path:url(#clip-path-52);}.cls-53{clip-path:url(#clip-path-53);}.cls-54{clip-path:url(#clip-path-54);}.cls-55{clip-path:url(#clip-path-55);}.cls-56{clip-path:url(#clip-path-56);}</style><clipPath id="clip-path"><path d="M77.07,13.1a0.82,0.82,0,1,0-.82-0.83,0.83,0.83,0,0,0,.82.83"/></clipPath><clipPath id="clip-path-2"><path d="M77.07,82.29a0.82,0.82,0,1,0-.82-0.83,0.83,0.83,0,0,0,.82.83"/></clipPath><clipPath id="clip-path-3"><path d="M7.87,80.64a0.82,0.82,0,1,0,.82.82,0.83,0.83,0,0,0-.82-0.82"/></clipPath><clipPath id="clip-path-4"><path d="M13.5,0.73a2.26,2.26,0,0,0-1.56.61,1.88,1.88,0,0,0-.67,1.43v7.43H4.47V2.77a1.89,1.89,0,0,0-.65-1.43A2.24,2.24,0,0,0,2.23.73a2.24,2.24,0,0,0-1.58.61A1.89,1.89,0,0,0,0,2.77v19a1.94,1.94,0,0,0,.65,1.45,2.21,2.21,0,0,0,1.58.62,2.21,2.21,0,0,0,1.58-.62,2,2,0,0,0,.65-1.45V14.29h6.8v7.43a1.93,1.93,0,0,0,.67,1.45,2.3,2.3,0,0,0,3.14,0,2,2,0,0,0,.65-1.45v-19a1.87,1.87,0,0,0-.67-1.43A2.25,2.25,0,0,0,13.5.73"/></clipPath><clipPath id="clip-path-5"><path d="M49.41,80a3.1,3.1,0,0,0-1.87-.54H44.06a2,2,0,0,0-1.41.59,2,2,0,0,0,0,2.85,2,2,0,0,0,1.41.59h1.66v5a6.51,6.51,0,0,1-1.18.48,5.1,5.1,0,0,1-1.47.19,3.39,3.39,0,0,1-3-1.21,5.6,5.6,0,0,1-.85-3.26V78.3A5.57,5.57,0,0,1,40.09,75a3.41,3.41,0,0,1,3-1.2,4.45,4.45,0,0,1,1.41.21,6.38,6.38,0,0,1,1.25.56L46,74.78l0.58,0.34a1.72,1.72,0,0,0,.8.14,2.08,2.08,0,0,0,1.52-.58,1.81,1.81,0,0,0,.59-1.34A2,2,0,0,0,49,72a4.94,4.94,0,0,0-1.49-1.09,9.42,9.42,0,0,0-2.11-.74,11,11,0,0,0-2.46-.27,10.13,10.13,0,0,0-3.64.59,6.54,6.54,0,0,0-2.54,1.7,6.85,6.85,0,0,0-1.49,2.65,11.62,11.62,0,0,0-.48,3.43v6.32a11.62,11.62,0,0,0,.48,3.44,6.88,6.88,0,0,0,1.49,2.65,6.55,6.55,0,0,0,2.54,1.69,10.14,10.14,0,0,0,3.64.59,13.46,13.46,0,0,0,2.52-.24A8.71,8.71,0,0,0,47.77,92a5.19,5.19,0,0,0,1.73-1.34,3,3,0,0,0,.67-1.93V81.66A2,2,0,0,0,49.41,80"/></clipPath><clipPath id="clip-path-6"><path d="M54.48,35.87a2.68,2.68,0,0,0-.8-0.35,3.37,3.37,0,0,0-.84-0.11,2,2,0,0,0-1.29.43A2.11,2.11,0,0,0,50.79,37l-2,8.14a21.48,21.48,0,0,0-.53,2.66c-0.12.88-.26,1.77-0.43,2.67-0.17-.9-0.31-1.78-0.41-2.67a19.83,19.83,0,0,0-.51-2.66L45,37.68a4,4,0,0,0-.8-1.72,2.18,2.18,0,0,0-1.75-.64,2.2,2.2,0,0,0-1.8.62,4.63,4.63,0,0,0-.78,1.74L38,45.17a21.07,21.07,0,0,0-.48,2.65q-0.16,1.37-.41,2.65-0.26-1.34-.42-2.66a18.74,18.74,0,0,0-.51-2.63l-2.1-8.23a1.79,1.79,0,0,0-.78-1.16A2.4,2.4,0,0,0,32,35.41a3,3,0,0,0-.85.13,2.37,2.37,0,0,0-1.33,1,1.46,1.46,0,0,0-.22.8,0.62,0.62,0,0,1,0,.19,3.79,3.79,0,0,1,.1.41l4.69,18.44a3.07,3.07,0,0,0,.94,1.37,2.5,2.5,0,0,0,1.71.64,2.34,2.34,0,0,0,1.83-.64,3.76,3.76,0,0,0,.78-1.34l1.92-7.88A20.54,20.54,0,0,0,42.08,46c0.11-.86.23-1.72,0.38-2.57q0.22,1.28.38,2.57a20.62,20.62,0,0,0,.48,2.54l1.88,7.82a3.51,3.51,0,0,0,.88,1.42,2.41,2.41,0,0,0,1.77.62,2.37,2.37,0,0,0,1.75-.61,3.46,3.46,0,0,0,.86-1.4l4.79-18.6a0.73,0.73,0,0,0,.06-0.25V37.36a1.58,1.58,0,0,0-.24-0.88,2.07,2.07,0,0,0-.61-0.61"/></clipPath><clipPath id="clip-path-7"><path d="M35.49,4.84h4.75v16.9a1.92,1.92,0,0,0,.66,1.45,2.39,2.39,0,0,0,3.2,0,1.92,1.92,0,0,0,.66-1.45V4.84h4.65A2.36,2.36,0,0,0,51,4.24a1.87,1.87,0,0,0,0-2.91,2.4,2.4,0,0,0-1.58-.6H35.49a2,2,0,0,0-.89.2,2.54,2.54,0,0,0-.71.5,2.49,2.49,0,0,0-.48.66,1.57,1.57,0,0,0-.18.71,1.89,1.89,0,0,0,.65,1.44,2.28,2.28,0,0,0,1.62.6"/></clipPath><clipPath id="clip-path-8"><polyline points="111.81 12.29 111.81 2.93 114.22 2.93 114.22 6.25 117.5 6.25 117.5 2.93 119.91 2.93 119.91 12.29 117.5 12.29 117.5 8.34 114.22 8.34 114.22 12.29 111.81 12.29"/></clipPath><clipPath id="clip-path-9"><path d="M123.79,8.83a2.53,2.53,0,0,0,.35,1.46,1.13,1.13,0,0,0,1,.51,1.14,1.14,0,0,0,1-.51,2.53,2.53,0,0,0,.35-1.45,2.49,2.49,0,0,0-.35-1.44,1.15,1.15,0,0,0-1-.51,1.13,1.13,0,0,0-1,.5,2.54,2.54,0,0,0-.35,1.45h0Zm-2.32,0a3.68,3.68,0,0,1,1-2.71,4.19,4.19,0,0,1,5.39,0,3.67,3.67,0,0,1,1,2.71,3.68,3.68,0,0,1-1,2.72,4.2,4.2,0,0,1-5.39,0,3.71,3.71,0,0,1-1-2.72h0Z"/></clipPath><clipPath id="clip-path-10"><path d="M136.61,9.73a3.06,3.06,0,0,1-1.06,2,3.51,3.51,0,0,1-2.32.73,3.27,3.27,0,0,1-2.49-1,3.63,3.63,0,0,1-.94-2.62,3.86,3.86,0,0,1,1-2.76,3.39,3.39,0,0,1,2.59-1,3.49,3.49,0,0,1,2.29.71,2.75,2.75,0,0,1,1,2h-2.28A1.33,1.33,0,0,0,134,7.1a0.92,0.92,0,0,0-.66-0.24,1,1,0,0,0-.89.5,2.88,2.88,0,0,0-.3,1.47,2.78,2.78,0,0,0,.29,1.42,1,1,0,0,0,.88.47,1,1,0,0,0,.71-0.25,1.33,1.33,0,0,0,.36-0.75h2.23"/></clipPath><clipPath id="clip-path-11"><path d="M137.92,12.29V2.93h2.26V6.28a2.54,2.54,0,0,1,.91-0.82,2.69,2.69,0,0,1,1.21-.26,2.18,2.18,0,0,1,1.66.6,2.44,2.44,0,0,1,.57,1.74v4.76h-2.26V8.81a3.59,3.59,0,0,0-.2-1.55,0.8,0.8,0,0,0-.75-0.33,1,1,0,0,0-.87.4,2.29,2.29,0,0,0-.27,1.27v3.7h-2.25"/></clipPath><clipPath id="clip-path-12"><path d="M145.84,10.18h2.26a0.9,0.9,0,0,0,.34.69,1.42,1.42,0,0,0,.87.23,1.32,1.32,0,0,0,.75-0.19,0.57,0.57,0,0,0,.27-0.5c0-.27-0.36-0.49-1.07-0.67q-0.57-.15-0.92-0.26a4.86,4.86,0,0,1-1.77-.89,1.62,1.62,0,0,1-.48-1.21,2,2,0,0,1,.8-1.65,3.61,3.61,0,0,1,2.21-.6,4.35,4.35,0,0,1,2.31.51,1.93,1.93,0,0,1,.92,1.53h-2.18a0.78,0.78,0,0,0-.32-0.52,1.21,1.21,0,0,0-.69-0.17,1.09,1.09,0,0,0-.63.16,0.51,0.51,0,0,0-.22.44q0,0.41,1.11.71l0.41,0.11q1,0.3,1.43.45a2.56,2.56,0,0,1,.58.28,1.75,1.75,0,0,1,.55.64,1.9,1.9,0,0,1,.18.85,2.05,2.05,0,0,1-.88,1.76,4.12,4.12,0,0,1-2.45.63,4.23,4.23,0,0,1-2.43-.61,2.2,2.2,0,0,1-1-1.72"/></clipPath><clipPath id="clip-path-13"><path d="M160.37,9.73a3.06,3.06,0,0,1-1.06,2,3.5,3.5,0,0,1-2.32.73,3.26,3.26,0,0,1-2.48-1,3.63,3.63,0,0,1-.94-2.62,3.87,3.87,0,0,1,1-2.76,3.39,3.39,0,0,1,2.6-1,3.49,3.49,0,0,1,2.29.71,2.74,2.74,0,0,1,1,2H158.1a1.34,1.34,0,0,0-.35-0.73,0.92,0.92,0,0,0-.66-0.24,1,1,0,0,0-.89.5,2.86,2.86,0,0,0-.31,1.47,2.75,2.75,0,0,0,.29,1.42,1,1,0,0,0,.88.47,1,1,0,0,0,.71-0.25,1.34,1.34,0,0,0,.36-0.75h2.23"/></clipPath><clipPath id="clip-path-14"><path d="M161.69,12.29V2.93h2.26V6.28a2.52,2.52,0,0,1,.91-0.82,2.7,2.7,0,0,1,1.22-.26,2.19,2.19,0,0,1,1.66.6,2.44,2.44,0,0,1,.57,1.74v4.76H166V8.81a3.64,3.64,0,0,0-.2-1.55,0.8,0.8,0,0,0-.75-0.33,1,1,0,0,0-.87.4,2.26,2.26,0,0,0-.28,1.27v3.7h-2.25"/></clipPath><clipPath id="clip-path-15"><path d="M176.55,5.38v6.91h-2.21v-1a2.67,2.67,0,0,1-.92.85,2.48,2.48,0,0,1-1.18.27,2.31,2.31,0,0,1-1.72-.59,2.39,2.39,0,0,1-.58-1.74V5.38h2.26V9.25a2.27,2.27,0,0,0,.21,1.17,0.82,0.82,0,0,0,.74.32,1,1,0,0,0,.86-0.39,2.31,2.31,0,0,0,.27-1.27V5.38h2.26"/></clipPath><clipPath id="clip-path-16"><rect x="178.27" y="2.93" width="2.26" height="9.37"/></clipPath><clipPath id="clip-path-17"><path d="M184.18,8.1h2.57a1.54,1.54,0,0,0-.35-1,1.19,1.19,0,0,0-.93-0.38,1.14,1.14,0,0,0-.89.37,1.78,1.78,0,0,0-.4,1.06h0Zm2.46,2h2.17a3,3,0,0,1-1.2,1.76,3.78,3.78,0,0,1-2.22.62,3.35,3.35,0,0,1-2.54-1,3.69,3.69,0,0,1-.94-2.66,3.8,3.8,0,0,1,.94-2.72,3.75,3.75,0,0,1,5.12,0A4,4,0,0,1,188.93,9c0,0.11,0,.2,0,0.25s0,0.11,0,.15h-4.67a1.73,1.73,0,0,0,.31,1.11,1.12,1.12,0,0,0,.93.39,1.35,1.35,0,0,0,.74-0.19,1,1,0,0,0,.41-0.56h0Z"/></clipPath><clipPath id="clip-path-18"><polyline points="194.06 12.29 194.06 2.93 196.42 2.93 196.42 6.5 199.75 2.93 202.63 2.93 198.84 6.86 202.72 12.29 199.86 12.29 197.23 8.54 196.42 9.35 196.42 12.29 194.06 12.29"/></clipPath><clipPath id="clip-path-19"><path d="M205.28,8.83a2.54,2.54,0,0,0,.35,1.46,1.13,1.13,0,0,0,1,.51,1.14,1.14,0,0,0,1-.51A2.54,2.54,0,0,0,208,8.83a2.5,2.5,0,0,0-.35-1.44,1.24,1.24,0,0,0-2,0,2.55,2.55,0,0,0-.34,1.45h0Zm-2.32,0a3.68,3.68,0,0,1,1-2.71,4.19,4.19,0,0,1,5.39,0,3.67,3.67,0,0,1,1,2.71,3.68,3.68,0,0,1-1,2.72,4.2,4.2,0,0,1-5.39,0,3.71,3.71,0,0,1-1-2.72h0Z"/></clipPath><clipPath id="clip-path-20"><path d="M211.66,12.29V5.38h2.21V6.33a2.36,2.36,0,0,1,.87-0.84A2.56,2.56,0,0,1,216,5.21a2.26,2.26,0,0,1,1.76.61,2.94,2.94,0,0,1,.54,2v4.49H216V8.81a3.57,3.57,0,0,0-.21-1.55,0.8,0.8,0,0,0-.75-0.33,1,1,0,0,0-.87.4,2.28,2.28,0,0,0-.27,1.27v3.7h-2.25"/></clipPath><clipPath id="clip-path-21"><path d="M219.57,10.18h2.27a0.9,0.9,0,0,0,.34.69,1.42,1.42,0,0,0,.87.23,1.33,1.33,0,0,0,.75-0.19,0.57,0.57,0,0,0,.27-0.5c0-.27-0.36-0.49-1.07-0.67q-0.57-.15-0.92-0.26a4.83,4.83,0,0,1-1.77-.89,1.61,1.61,0,0,1-.48-1.21,2,2,0,0,1,.8-1.65,3.61,3.61,0,0,1,2.21-.6,4.37,4.37,0,0,1,2.32.51,1.93,1.93,0,0,1,.91,1.53h-2.17a0.77,0.77,0,0,0-.32-0.52,1.21,1.21,0,0,0-.69-0.17,1.08,1.08,0,0,0-.62.16,0.51,0.51,0,0,0-.22.44q0,0.41,1.11.71l0.41,0.11q1,0.3,1.43.45a2.5,2.5,0,0,1,.58.28,1.75,1.75,0,0,1,.55.64,1.89,1.89,0,0,1,.18.85,2,2,0,0,1-.88,1.76,4.12,4.12,0,0,1-2.45.63,4.25,4.25,0,0,1-2.43-.61,2.2,2.2,0,0,1-1-1.72"/></clipPath><clipPath id="clip-path-22"><path d="M227,6.75V5.38H228v-2h2.26v2h1.16V6.75h-1.16v3a1.57,1.57,0,0,0,.18.91,0.81,0.81,0,0,0,.67.22h0.29V12.3c-0.24,0-.47.08-0.7,0.11a5.41,5.41,0,0,1-.66,0,1.9,1.9,0,0,1-1.61-.58A4.58,4.58,0,0,1,228,9.42V6.75H227"/></clipPath><clipPath id="clip-path-23"><path d="M236.6,9a3,3,0,0,1-.92.3l-0.48.11a1.24,1.24,0,0,0-.57.29,0.67,0.67,0,0,0-.17.48,0.79,0.79,0,0,0,.23.6,0.82,0.82,0,0,0,.6.23,1.36,1.36,0,0,0,.95-0.33,1.13,1.13,0,0,0,.36-0.87V9h0Zm2.49,3.25h-2.31c0-.11,0-0.23-0.07-0.34l-0.05-.37a3.28,3.28,0,0,1-1,.7,3,3,0,0,1-1.18.23,2.21,2.21,0,0,1-1.58-.55,2,2,0,0,1-.58-1.49,2.1,2.1,0,0,1,.46-1.4,2.48,2.48,0,0,1,1.38-.75c0.34-.08.77-0.16,1.29-0.25,0.78-.13,1.17-0.31,1.17-0.56V7.36a0.52,0.52,0,0,0-.22-0.46,1.19,1.19,0,0,0-.67-0.16,1.34,1.34,0,0,0-.77.2,0.85,0.85,0,0,0-.35.58H232.5a2.44,2.44,0,0,1,1-1.74,3.91,3.91,0,0,1,2.29-.57,4.78,4.78,0,0,1,1.56.22,2.12,2.12,0,0,1,1,.67,2,2,0,0,1,.35.77,7.13,7.13,0,0,1,.1,1.44v2.62a2.44,2.44,0,0,0,.09.74,0.53,0.53,0,0,0,.26.35v0.26h0Z"/></clipPath><clipPath id="clip-path-24"><path d="M240.44,12.29V5.38h2.21V6.33a2.4,2.4,0,0,1,.87-0.84,2.56,2.56,0,0,1,1.23-.27,2.26,2.26,0,0,1,1.76.61,2.93,2.93,0,0,1,.54,2v4.49h-2.27V8.81a3.65,3.65,0,0,0-.2-1.55,0.81,0.81,0,0,0-.75-0.33,1,1,0,0,0-.87.4,2.27,2.27,0,0,0-.27,1.27v3.7h-2.25"/></clipPath><clipPath id="clip-path-25"><polyline points="248.29 12.29 248.29 10.63 251.73 7.01 248.51 7.01 248.51 5.38 254.55 5.38 254.55 7.01 251.14 10.63 254.67 10.63 254.67 12.29 248.29 12.29"/></clipPath><clipPath id="clip-path-26"><polyline points="114.56 28.44 114.56 19.85 111.65 19.85 111.65 19.08 118.34 19.08 118.34 19.85 115.44 19.85 115.44 28.44 114.56 28.44"/></clipPath><clipPath id="clip-path-27"><path d="M119.08,24.58h4.23a2.79,2.79,0,0,0-.61-1.76,1.86,1.86,0,0,0-1.48-.64,1.94,1.94,0,0,0-1.51.65,2.74,2.74,0,0,0-.64,1.74h0Zm0,0.63v0a3,3,0,0,0,.6,2,2,2,0,0,0,1.6.73,2.06,2.06,0,0,0,1.33-.43,1.8,1.8,0,0,0,.65-1.17H124a2.42,2.42,0,0,1-.89,1.65,2.94,2.94,0,0,1-1.92.62,2.66,2.66,0,0,1-2.16-.93,3.91,3.91,0,0,1-.78-2.59,4,4,0,0,1,.79-2.64,2.68,2.68,0,0,1,2.19-.95,2.61,2.61,0,0,1,2.12.91,3.82,3.82,0,0,1,.76,2.53v0.26h-5.05Z"/></clipPath><clipPath id="clip-path-28"><path d="M130.37,26.11h0.78a2.71,2.71,0,0,1-.86,1.83,2.83,2.83,0,0,1-2,.67,2.68,2.68,0,0,1-2.16-.94,3.84,3.84,0,0,1-.79-2.56,4,4,0,0,1,.8-2.64,2.73,2.73,0,0,1,2.2-1,2.75,2.75,0,0,1,1.87.64,2.3,2.3,0,0,1,.79,1.68h-0.75a1.79,1.79,0,0,0-.62-1.18,2.09,2.09,0,0,0-2.9.32A3.3,3.3,0,0,0,126.2,25a3.4,3.4,0,0,0,.6,2.12,1.93,1.93,0,0,0,1.61.78,1.86,1.86,0,0,0,1.32-.49,2.18,2.18,0,0,0,.65-1.35"/></clipPath><clipPath id="clip-path-29"><path d="M132.61,28.44V19.08h0.8v3.66a2.55,2.55,0,0,1,.93-0.92,2.62,2.62,0,0,1,1.29-.31,2.79,2.79,0,0,1,1.21.25,1.91,1.91,0,0,1,.82.7,1.77,1.77,0,0,1,.21.59,8.51,8.51,0,0,1,.06,1.27v4.11h-0.79v-4.1a2.8,2.8,0,0,0-.36-1.7,1.62,1.62,0,0,0-1.29-.43,2,2,0,0,0-1.51.6,2.31,2.31,0,0,0-.56,1.63v4h-0.8"/></clipPath><clipPath id="clip-path-30"><path d="M139.83,28.44V21.68h0.76v1.08a2.64,2.64,0,0,1,.94-0.94,2.6,2.6,0,0,1,1.3-.31,2.9,2.9,0,0,1,1.23.25,1.87,1.87,0,0,1,.81.71,1.65,1.65,0,0,1,.21.57,6.62,6.62,0,0,1,.06,1.09v4.31h-0.81V24.25a2.56,2.56,0,0,0-.36-1.61,1.64,1.64,0,0,0-1.29-.42,1.93,1.93,0,0,0-1.5.6,2.34,2.34,0,0,0-.55,1.64v4h-0.79"/></clipPath><clipPath id="clip-path-31"><path d="M147.06,28.44h0.77V21.68h-0.77v6.76h0Zm0-8.19h0.77V19.08h-0.77v1.18h0Z"/></clipPath><clipPath id="clip-path-32"><polyline points="149.79 28.44 149.79 19.08 150.57 19.08 150.57 24.96 153.95 21.68 154.94 21.68 152.39 24.16 155.26 28.44 154.36 28.44 151.85 24.68 150.57 25.91 150.57 28.44 149.79 28.44"/></clipPath><clipPath id="clip-path-33"><path d="M156.72,30.25v-0.5a0.88,0.88,0,0,0,.31-0.35,1.22,1.22,0,0,0,.09-0.51V28.44h-0.4V27.28h0.86v1.56a1.71,1.71,0,0,1-.2.9,1.34,1.34,0,0,1-.66.51"/></clipPath><clipPath id="clip-path-34"><polyline points="164.84 28.44 162.42 19.08 163.27 19.08 165.35 27.15 167.42 19.08 168.48 19.08 170.52 27.15 172.63 19.08 173.45 19.08 170.99 28.44 170.05 28.44 167.93 20.12 165.77 28.44 164.84 28.44"/></clipPath><clipPath id="clip-path-35"><path d="M174.77,28.44h0.78V21.68h-0.78v6.76h0Zm0-8.19h0.78V19.08h-0.78v1.18h0Z"/></clipPath><clipPath id="clip-path-36"><path d="M177.5,28.44V21.68h0.76v1.18a2.21,2.21,0,0,1,.81-1,2.27,2.27,0,0,1,1.27-.34h0.09v0.82h-0.1a1.87,1.87,0,0,0-1.52.6,2.7,2.7,0,0,0-.5,1.79v3.72H177.5"/></clipPath><clipPath id="clip-path-37"><path d="M183,19.74v1.94h1.25v0.63H183v4.93a1,1,0,0,0,.11.57,0.46,0.46,0,0,0,.39.14l0.27,0,0.48-.09v0.62a4.74,4.74,0,0,1-.52.11,3,3,0,0,1-.45,0,1,1,0,0,1-.82-0.3,1.73,1.73,0,0,1-.24-1.07V22.32h-0.92V21.68h0.92V19.74H183"/></clipPath><clipPath id="clip-path-38"><path d="M185.32,26.34h0.78a1.53,1.53,0,0,0,.53,1.13,1.88,1.88,0,0,0,1.28.44,2.31,2.31,0,0,0,1.33-.33,1,1,0,0,0,.49-0.9q0-.82-1.8-1.25h0a5,5,0,0,1-1.94-.77,1.45,1.45,0,0,1-.49-1.17,1.76,1.76,0,0,1,.64-1.41,2.53,2.53,0,0,1,1.68-.54,2.71,2.71,0,0,1,1.81.57,2.16,2.16,0,0,1,.74,1.58h-0.8a1.46,1.46,0,0,0-.51-1.07,1.92,1.92,0,0,0-1.26-.38,1.78,1.78,0,0,0-1.11.32,1,1,0,0,0-.41.84q0,0.9,1.84,1.33l0.36,0.08a3.7,3.7,0,0,1,1.61.72,1.56,1.56,0,0,1,.45,1.19,1.68,1.68,0,0,1-.71,1.4,3,3,0,0,1-1.87.54,2.75,2.75,0,0,1-1.89-.62,2.2,2.2,0,0,1-.74-1.67"/></clipPath><clipPath id="clip-path-39"><path d="M196.78,26.11h0.78a2.69,2.69,0,0,1-.86,1.83,2.82,2.82,0,0,1-2,.67,2.67,2.67,0,0,1-2.16-.94,3.83,3.83,0,0,1-.79-2.56,4,4,0,0,1,.8-2.64,2.72,2.72,0,0,1,2.2-1,2.75,2.75,0,0,1,1.87.64,2.3,2.3,0,0,1,.79,1.68h-0.75a1.79,1.79,0,0,0-.62-1.18,2.09,2.09,0,0,0-2.9.32,3.28,3.28,0,0,0-.6,2.07,3.39,3.39,0,0,0,.6,2.12,1.93,1.93,0,0,0,1.61.78,1.86,1.86,0,0,0,1.32-.49,2.2,2.2,0,0,0,.65-1.35"/></clipPath><clipPath id="clip-path-40"><path d="M199,28.44V19.08h0.79v3.66a2.56,2.56,0,0,1,.93-0.92,2.63,2.63,0,0,1,1.29-.31,2.8,2.8,0,0,1,1.21.25,1.89,1.89,0,0,1,.81.7,1.74,1.74,0,0,1,.21.59,8.5,8.5,0,0,1,.06,1.27v4.11h-0.79v-4.1a2.77,2.77,0,0,0-.36-1.7,1.62,1.62,0,0,0-1.29-.43,2,2,0,0,0-1.51.6,2.31,2.31,0,0,0-.56,1.63v4H199"/></clipPath><clipPath id="clip-path-41"><path d="M210.55,24.9a4,4,0,0,1-.8.19c-0.33,0-.85.09-1.57,0.13a2.6,2.6,0,0,0-1.13.56,1.16,1.16,0,0,0-.38.87,1.14,1.14,0,0,0,.41.92,1.68,1.68,0,0,0,1.12.34,2.52,2.52,0,0,0,1.71-.56,1.91,1.91,0,0,0,.64-1.52V24.9h0Zm0.05,2.56a3.66,3.66,0,0,1-1.16.86,3.18,3.18,0,0,1-1.34.29,2.39,2.39,0,0,1-1.63-.53,2,2,0,0,1-.33-2.43,1.89,1.89,0,0,1,.8-0.68,6.52,6.52,0,0,1,2-.38l0.41,0,0.22,0a1,1,0,0,0,1-.83,1.43,1.43,0,0,0-.39-1.13,2,2,0,0,0-1.29-.34,2.22,2.22,0,0,0-1.39.38A1.42,1.42,0,0,0,207,23.7H206.2a2,2,0,0,1,.74-1.6,3,3,0,0,1,1.94-.59,2.84,2.84,0,0,1,1.84.52,1.87,1.87,0,0,1,.63,1.53v3.69a0.82,0.82,0,0,0,.1.52,0.53,0.53,0,0,0,.38.1h0.29v0.58l-0.29,0-0.26,0a1,1,0,0,1-.73-0.23,0.93,0.93,0,0,1-.24-0.7V27.46h0Z"/></clipPath><clipPath id="clip-path-42"><path d="M213.6,28.44V22.32h-1V21.68h1V20.45a1.44,1.44,0,0,1,.38-1.11A1.77,1.77,0,0,1,215.2,19h0.19l0.21,0v0.7h-0.08l-0.36,0a0.86,0.86,0,0,0-.62.18,0.92,0.92,0,0,0-.18.64v1.16h1.23v0.63h-1.23v6.12H213.6"/></clipPath><clipPath id="clip-path-43"><path d="M218.23,19.74v1.94h1.25v0.63h-1.25v4.93a1,1,0,0,0,.11.57,0.45,0.45,0,0,0,.38.14l0.27,0,0.48-.09v0.62a4.81,4.81,0,0,1-.52.11,3,3,0,0,1-.45,0,1,1,0,0,1-.82-0.3,1.73,1.73,0,0,1-.24-1.07V22.32h-0.92V21.68h0.92V19.74h0.78"/></clipPath><clipPath id="clip-path-44"><path d="M229.48,21.68v6.76h-0.76V27.36a2.6,2.6,0,0,1-.94,1,2.68,2.68,0,0,1-1.32.31,2.26,2.26,0,0,1-1.72-.6,2.5,2.5,0,0,1-.58-1.79V21.68H225V26a2.14,2.14,0,0,0,.38,1.43,1.63,1.63,0,0,0,1.27.43,2,2,0,0,0,1.54-.6,2.27,2.27,0,0,0,.56-1.63v-4h0.78"/></clipPath><clipPath id="clip-path-45"><path d="M231.41,28.44V21.68h0.76v1.08a2.63,2.63,0,0,1,.94-0.94,2.59,2.59,0,0,1,1.29-.31,2.89,2.89,0,0,1,1.23.25,1.83,1.83,0,0,1,.8.71,1.67,1.67,0,0,1,.21.57,6.68,6.68,0,0,1,.06,1.09v4.31H235.9V24.25a2.57,2.57,0,0,0-.37-1.61,1.64,1.64,0,0,0-1.29-.42,1.93,1.93,0,0,0-1.5.6,2.33,2.33,0,0,0-.55,1.64v4h-0.79"/></clipPath><clipPath id="clip-path-46"><path d="M239.11,25.07a3.3,3.3,0,0,0,.6,2.11,2,2,0,0,0,1.67.75,2.05,2.05,0,0,0,1.7-.74,3.31,3.31,0,0,0,.59-2.12,3.32,3.32,0,0,0-.6-2.12,2.05,2.05,0,0,0-1.7-.75,2,2,0,0,0-1.68.74,3.33,3.33,0,0,0-.59,2.12h0Zm5.29-6v9.36h-0.78V27.3a2.62,2.62,0,0,1-1,1,2.82,2.82,0,0,1-1.39.33,2.66,2.66,0,0,1-2.16-1,3.93,3.93,0,0,1-.79-2.6,3.9,3.9,0,0,1,.81-2.6,3,3,0,0,1,3.58-.62,2.51,2.51,0,0,1,1,1V19.08h0.78Z"/></clipPath><clipPath id="clip-path-47"><path d="M257,28.44l-0.09-1.65a3.2,3.2,0,0,1-1.29,1.41,4.17,4.17,0,0,1-5-.82,5.45,5.45,0,0,1-1.12-3.63,5.29,5.29,0,0,1,1.14-3.59,3.9,3.9,0,0,1,3.1-1.31,4.24,4.24,0,0,1,2.65.78,3.21,3.21,0,0,1,1.23,2.19h-0.88a2.53,2.53,0,0,0-1-1.63,3.23,3.23,0,0,0-2-.59,3.05,3.05,0,0,0-2.5,1.08,4.73,4.73,0,0,0-.88,3.07,4.81,4.81,0,0,0,.88,3.05,2.89,2.89,0,0,0,2.4,1.13A3.16,3.16,0,0,0,256,27a3.57,3.57,0,0,0,.86-2.56v0h-3.09V23.63h3.91v4.81H257"/></clipPath><clipPath id="clip-path-48"><path d="M260.14,24.58h4.23a2.78,2.78,0,0,0-.61-1.76,1.86,1.86,0,0,0-1.48-.64,2,2,0,0,0-1.51.65,2.74,2.74,0,0,0-.64,1.74h0Zm0,0.63v0a3,3,0,0,0,.6,2,2,2,0,0,0,1.6.73,2,2,0,0,0,1.33-.43,1.79,1.79,0,0,0,.65-1.17h0.78a2.42,2.42,0,0,1-.89,1.65,2.94,2.94,0,0,1-1.92.62,2.67,2.67,0,0,1-2.16-.93,3.91,3.91,0,0,1-.78-2.59,4,4,0,0,1,.79-2.64,2.69,2.69,0,0,1,2.18-.95,2.62,2.62,0,0,1,2.12.91,3.84,3.84,0,0,1,.76,2.53v0.26h-5.05Z"/></clipPath><clipPath id="clip-path-49"><path d="M266.44,26.34h0.78a1.53,1.53,0,0,0,.53,1.13,1.88,1.88,0,0,0,1.28.44,2.32,2.32,0,0,0,1.33-.33,1,1,0,0,0,.49-0.9q0-.82-1.8-1.25h0a5,5,0,0,1-1.94-.77,1.45,1.45,0,0,1-.49-1.17,1.76,1.76,0,0,1,.65-1.41,2.52,2.52,0,0,1,1.68-.54,2.72,2.72,0,0,1,1.81.57,2.16,2.16,0,0,1,.74,1.58h-0.79a1.48,1.48,0,0,0-.51-1.07,1.92,1.92,0,0,0-1.26-.38,1.76,1.76,0,0,0-1.1.32,1,1,0,0,0-.41.84q0,0.9,1.84,1.33l0.36,0.08a3.72,3.72,0,0,1,1.61.72,1.55,1.55,0,0,1,.45,1.19,1.68,1.68,0,0,1-.71,1.4,3,3,0,0,1-1.86.54,2.76,2.76,0,0,1-1.89-.62,2.2,2.2,0,0,1-.74-1.67"/></clipPath><clipPath id="clip-path-50"><path d="M274.21,19.74v1.94h1.26v0.63h-1.26v4.93a1,1,0,0,0,.11.57,0.46,0.46,0,0,0,.39.14l0.27,0,0.48-.09v0.62a4.87,4.87,0,0,1-.52.11,3,3,0,0,1-.45,0,1,1,0,0,1-.82-0.3,1.74,1.74,0,0,1-.24-1.07V22.32h-0.92V21.68h0.92V19.74h0.78"/></clipPath><clipPath id="clip-path-51"><path d="M281.23,24.9a3.94,3.94,0,0,1-.8.19c-0.32,0-.84.09-1.57,0.13a2.59,2.59,0,0,0-1.13.56,1.16,1.16,0,0,0-.38.87,1.14,1.14,0,0,0,.41.92,1.68,1.68,0,0,0,1.12.34,2.52,2.52,0,0,0,1.71-.56,1.91,1.91,0,0,0,.64-1.52V24.9h0Zm0.05,2.56a3.71,3.71,0,0,1-1.16.86,3.18,3.18,0,0,1-1.34.29,2.39,2.39,0,0,1-1.63-.53,2,2,0,0,1-.33-2.43,1.89,1.89,0,0,1,.8-0.68,6.5,6.5,0,0,1,2-.38l0.41,0,0.22,0a1,1,0,0,0,1-.83,1.43,1.43,0,0,0-.39-1.13,2,2,0,0,0-1.29-.34,2.21,2.21,0,0,0-1.39.38,1.44,1.44,0,0,0-.52,1.12h-0.77a2,2,0,0,1,.74-1.6,3,3,0,0,1,1.94-.59,2.83,2.83,0,0,1,1.84.52,1.87,1.87,0,0,1,.63,1.53v3.69a0.81,0.81,0,0,0,.1.52,0.53,0.53,0,0,0,.38.1h0.29v0.58l-0.29,0-0.26,0a1,1,0,0,1-.73-0.23,0.94,0.94,0,0,1-.24-0.7V27.46h0Z"/></clipPath><clipPath id="clip-path-52"><rect x="284.11" y="19.08" width="0.78" height="9.37"/></clipPath><clipPath id="clip-path-53"><path d="M287.91,19.74v1.94h1.25v0.63h-1.25v4.93a1,1,0,0,0,.11.57,0.46,0.46,0,0,0,.39.14l0.27,0,0.48-.09v0.62a4.71,4.71,0,0,1-.52.11,3,3,0,0,1-.45,0,1,1,0,0,1-.83-0.3,1.74,1.74,0,0,1-.24-1.07V22.32h-0.92V21.68h0.92V19.74h0.78"/></clipPath><clipPath id="clip-path-54"><path d="M295.84,21.68v6.76h-0.76V27.36a2.6,2.6,0,0,1-.94,1,2.67,2.67,0,0,1-1.32.31,2.26,2.26,0,0,1-1.72-.6,2.5,2.5,0,0,1-.58-1.79V21.68h0.78V26a2.14,2.14,0,0,0,.38,1.43,1.63,1.63,0,0,0,1.27.43,2,2,0,0,0,1.54-.6,2.27,2.27,0,0,0,.56-1.63v-4h0.78"/></clipPath><clipPath id="clip-path-55"><path d="M297.77,28.44V21.68h0.76v1.08a2.63,2.63,0,0,1,.94-0.94,2.59,2.59,0,0,1,1.29-.31,2.89,2.89,0,0,1,1.23.25,1.83,1.83,0,0,1,.8.71A1.67,1.67,0,0,1,303,23a6.69,6.69,0,0,1,.06,1.09v4.31h-0.81V24.25a2.56,2.56,0,0,0-.37-1.61,1.64,1.64,0,0,0-1.29-.42,1.93,1.93,0,0,0-1.5.6,2.33,2.33,0,0,0-.55,1.64v4h-0.79"/></clipPath><clipPath id="clip-path-56"><path d="M305.46,25.07a3.3,3.3,0,0,0,.61,2.11,2,2,0,0,0,1.67.77,2,2,0,0,0,1.69-.76,3.32,3.32,0,0,0,.6-2.12,3.29,3.29,0,0,0-.6-2.12,2.28,2.28,0,0,0-3.38,0,3.34,3.34,0,0,0-.59,2.12h0Zm5.29-3.39v6.41a3.11,3.11,0,0,1-.81,2.33,3.3,3.3,0,0,1-2.39.79,3.15,3.15,0,0,1-1.91-.53,1.89,1.89,0,0,1-.8-1.45h0.8a1.26,1.26,0,0,0,.55.95,2.35,2.35,0,0,0,1.34.33,2.52,2.52,0,0,0,1.84-.6,2.42,2.42,0,0,0,.61-1.79V27.28a2.82,2.82,0,0,1-1,1,2.69,2.69,0,0,1-1.36.33,2.72,2.72,0,0,1-2.2-1,3.92,3.92,0,0,1-.8-2.6,3.91,3.91,0,0,1,.81-2.6,2.72,2.72,0,0,1,2.19-1,2.68,2.68,0,0,1,1.37.34,2.74,2.74,0,0,1,1,1V21.68h0.78Z"/></clipPath></defs><title>HTWG_Markenzeichen_desktop_pos</title><path d="M77.07,13.1a0.82,0.82,0,1,0-.82-0.83,0.83,0.83,0,0,0,.82.83"/><g class="cls-1"><rect x="71.25" y="6.45" width="11.65" height="11.65"/></g><path d="M77.07,82.29a0.82,0.82,0,1,0-.82-0.83,0.83,0.83,0,0,0,.82.83"/><g class="cls-2"><rect x="71.25" y="75.64" width="11.65" height="11.65"/></g><path d="M7.87,80.64a0.82,0.82,0,1,0,.82.82,0.83,0.83,0,0,0-.82-0.82"/><g class="cls-3"><rect x="2.04" y="75.64" width="11.65" height="11.65"/></g><path d="M13.5,0.73a2.26,2.26,0,0,0-1.56.61,1.88,1.88,0,0,0-.67,1.43v7.43H4.47V2.77a1.89,1.89,0,0,0-.65-1.43A2.24,2.24,0,0,0,2.23.73a2.24,2.24,0,0,0-1.58.61A1.89,1.89,0,0,0,0,2.77v19a1.94,1.94,0,0,0,.65,1.45,2.21,2.21,0,0,0,1.58.62,2.21,2.21,0,0,0,1.58-.62,2,2,0,0,0,.65-1.45V14.29h6.8v7.43a1.93,1.93,0,0,0,.67,1.45,2.3,2.3,0,0,0,3.14,0,2,2,0,0,0,.65-1.45v-19a1.87,1.87,0,0,0-.67-1.43A2.25,2.25,0,0,0,13.5.73"/><g class="cls-4"><rect x="-5" y="-4.27" width="25.73" height="33.07"/></g><path d="M49.41,80a3.1,3.1,0,0,0-1.87-.54H44.06a2,2,0,0,0-1.41.59,2,2,0,0,0,0,2.85,2,2,0,0,0,1.41.59h1.66v5a6.51,6.51,0,0,1-1.18.48,5.1,5.1,0,0,1-1.47.19,3.39,3.39,0,0,1-3-1.21,5.6,5.6,0,0,1-.85-3.26V78.3A5.57,5.57,0,0,1,40.09,75a3.41,3.41,0,0,1,3-1.2,4.45,4.45,0,0,1,1.41.21,6.38,6.38,0,0,1,1.25.56L46,74.78l0.58,0.34a1.72,1.72,0,0,0,.8.14,2.08,2.08,0,0,0,1.52-.58,1.81,1.81,0,0,0,.59-1.34A2,2,0,0,0,49,72a4.94,4.94,0,0,0-1.49-1.09,9.42,9.42,0,0,0-2.11-.74,11,11,0,0,0-2.46-.27,10.13,10.13,0,0,0-3.64.59,6.54,6.54,0,0,0-2.54,1.7,6.85,6.85,0,0,0-1.49,2.65,11.62,11.62,0,0,0-.48,3.43v6.32a11.62,11.62,0,0,0,.48,3.44,6.88,6.88,0,0,0,1.49,2.65,6.55,6.55,0,0,0,2.54,1.69,10.14,10.14,0,0,0,3.64.59,13.46,13.46,0,0,0,2.52-.24A8.71,8.71,0,0,0,47.77,92a5.19,5.19,0,0,0,1.73-1.34,3,3,0,0,0,.67-1.93V81.66A2,2,0,0,0,49.41,80"/><g class="cls-5"><rect x="29.77" y="64.93" width="25.4" height="33.07"/></g><path d="M54.48,35.87a2.68,2.68,0,0,0-.8-0.35,3.37,3.37,0,0,0-.84-0.11,2,2,0,0,0-1.29.43A2.11,2.11,0,0,0,50.79,37l-2,8.14a21.48,21.48,0,0,0-.53,2.66c-0.12.88-.26,1.77-0.43,2.67-0.17-.9-0.31-1.78-0.41-2.67a19.83,19.83,0,0,0-.51-2.66L45,37.68a4,4,0,0,0-.8-1.72,2.18,2.18,0,0,0-1.75-.64,2.2,2.2,0,0,0-1.8.62,4.63,4.63,0,0,0-.78,1.74L38,45.17a21.07,21.07,0,0,0-.48,2.65q-0.16,1.37-.41,2.65-0.26-1.34-.42-2.66a18.74,18.74,0,0,0-.51-2.63l-2.1-8.23a1.79,1.79,0,0,0-.78-1.16A2.4,2.4,0,0,0,32,35.41a3,3,0,0,0-.85.13,2.37,2.37,0,0,0-1.33,1,1.46,1.46,0,0,0-.22.8,0.62,0.62,0,0,1,0,.19,3.79,3.79,0,0,1,.1.41l4.69,18.44a3.07,3.07,0,0,0,.94,1.37,2.5,2.5,0,0,0,1.71.64,2.34,2.34,0,0,0,1.83-.64,3.76,3.76,0,0,0,.78-1.34l1.92-7.88A20.54,20.54,0,0,0,42.08,46c0.11-.86.23-1.72,0.38-2.57q0.22,1.28.38,2.57a20.62,20.62,0,0,0,.48,2.54l1.88,7.82a3.51,3.51,0,0,0,.88,1.42,2.41,2.41,0,0,0,1.77.62,2.37,2.37,0,0,0,1.75-.61,3.46,3.46,0,0,0,.86-1.4l4.79-18.6a0.73,0.73,0,0,0,.06-0.25V37.36a1.58,1.58,0,0,0-.24-0.88,2.07,2.07,0,0,0-.61-0.61"/><g class="cls-6"><rect x="24.61" y="30.32" width="35.71" height="33.07"/></g><path d="M35.49,4.84h4.75v16.9a1.92,1.92,0,0,0,.66,1.45,2.39,2.39,0,0,0,3.2,0,1.92,1.92,0,0,0,.66-1.45V4.84h4.65A2.36,2.36,0,0,0,51,4.24a1.87,1.87,0,0,0,0-2.91,2.4,2.4,0,0,0-1.58-.6H35.49a2,2,0,0,0-.89.2,2.54,2.54,0,0,0-.71.5,2.49,2.49,0,0,0-.48.66,1.57,1.57,0,0,0-.18.71,1.89,1.89,0,0,0,.65,1.44,2.28,2.28,0,0,0,1.62.6"/><g class="cls-7"><rect x="28.22" y="-4.27" width="28.48" height="33.07"/></g><polyline points="111.81 12.29 111.81 2.93 114.22 2.93 114.22 6.25 117.5 6.25 117.5 2.93 119.91 2.93 119.91 12.29 117.5 12.29 117.5 8.34 114.22 8.34 114.22 12.29 111.81 12.29"/><g class="cls-8"><rect x="106.81" y="-2.07" width="18.1" height="19.37"/></g><path d="M123.79,8.83a2.53,2.53,0,0,0,.35,1.46,1.13,1.13,0,0,0,1,.51,1.14,1.14,0,0,0,1-.51,2.53,2.53,0,0,0,.35-1.45,2.49,2.49,0,0,0-.35-1.44,1.15,1.15,0,0,0-1-.51,1.13,1.13,0,0,0-1,.5,2.54,2.54,0,0,0-.35,1.45h0Zm-2.32,0a3.68,3.68,0,0,1,1-2.71,4.19,4.19,0,0,1,5.39,0,3.67,3.67,0,0,1,1,2.71,3.68,3.68,0,0,1-1,2.72,4.2,4.2,0,0,1-5.39,0,3.71,3.71,0,0,1-1-2.72h0Z"/><g class="cls-9"><rect x="116.47" y="0.13" width="17.34" height="17.39"/></g><path d="M136.61,9.73a3.06,3.06,0,0,1-1.06,2,3.51,3.51,0,0,1-2.32.73,3.27,3.27,0,0,1-2.49-1,3.63,3.63,0,0,1-.94-2.62,3.86,3.86,0,0,1,1-2.76,3.39,3.39,0,0,1,2.59-1,3.49,3.49,0,0,1,2.29.71,2.75,2.75,0,0,1,1,2h-2.28A1.33,1.33,0,0,0,134,7.1a0.92,0.92,0,0,0-.66-0.24,1,1,0,0,0-.89.5,2.88,2.88,0,0,0-.3,1.47,2.78,2.78,0,0,0,.29,1.42,1,1,0,0,0,.88.47,1,1,0,0,0,.71-0.25,1.33,1.33,0,0,0,.36-0.75h2.23"/><g class="cls-10"><rect x="124.81" y="0.13" width="16.81" height="17.38"/></g><path d="M137.92,12.29V2.93h2.26V6.28a2.54,2.54,0,0,1,.91-0.82,2.69,2.69,0,0,1,1.21-.26,2.18,2.18,0,0,1,1.66.6,2.44,2.44,0,0,1,.57,1.74v4.76h-2.26V8.81a3.59,3.59,0,0,0-.2-1.55,0.8,0.8,0,0,0-.75-0.33,1,1,0,0,0-.87.4,2.29,2.29,0,0,0-.27,1.27v3.7h-2.25"/><g class="cls-11"><rect x="132.92" y="-2.07" width="16.61" height="19.37"/></g><path d="M145.84,10.18h2.26a0.9,0.9,0,0,0,.34.69,1.42,1.42,0,0,0,.87.23,1.32,1.32,0,0,0,.75-0.19,0.57,0.57,0,0,0,.27-0.5c0-.27-0.36-0.49-1.07-0.67q-0.57-.15-0.92-0.26a4.86,4.86,0,0,1-1.77-.89,1.62,1.62,0,0,1-.48-1.21,2,2,0,0,1,.8-1.65,3.61,3.61,0,0,1,2.21-.6,4.35,4.35,0,0,1,2.31.51,1.93,1.93,0,0,1,.92,1.53h-2.18a0.78,0.78,0,0,0-.32-0.52,1.21,1.21,0,0,0-.69-0.17,1.09,1.09,0,0,0-.63.16,0.51,0.51,0,0,0-.22.44q0,0.41,1.11.71l0.41,0.11q1,0.3,1.43.45a2.56,2.56,0,0,1,.58.28,1.75,1.75,0,0,1,.55.64,1.9,1.9,0,0,1,.18.85,2.05,2.05,0,0,1-.88,1.76,4.12,4.12,0,0,1-2.45.63,4.23,4.23,0,0,1-2.43-.61,2.2,2.2,0,0,1-1-1.72"/><g class="cls-12"><rect x="140.84" y="0.13" width="16.73" height="17.38"/></g><path d="M160.37,9.73a3.06,3.06,0,0,1-1.06,2,3.5,3.5,0,0,1-2.32.73,3.26,3.26,0,0,1-2.48-1,3.63,3.63,0,0,1-.94-2.62,3.87,3.87,0,0,1,1-2.76,3.39,3.39,0,0,1,2.6-1,3.49,3.49,0,0,1,2.29.71,2.74,2.74,0,0,1,1,2H158.1a1.34,1.34,0,0,0-.35-0.73,0.92,0.92,0,0,0-.66-0.24,1,1,0,0,0-.89.5,2.86,2.86,0,0,0-.31,1.47,2.75,2.75,0,0,0,.29,1.42,1,1,0,0,0,.88.47,1,1,0,0,0,.71-0.25,1.34,1.34,0,0,0,.36-0.75h2.23"/><g class="cls-13"><rect x="148.57" y="0.13" width="16.81" height="17.38"/></g><path d="M161.69,12.29V2.93h2.26V6.28a2.52,2.52,0,0,1,.91-0.82,2.7,2.7,0,0,1,1.22-.26,2.19,2.19,0,0,1,1.66.6,2.44,2.44,0,0,1,.57,1.74v4.76H166V8.81a3.64,3.64,0,0,0-.2-1.55,0.8,0.8,0,0,0-.75-0.33,1,1,0,0,0-.87.4,2.26,2.26,0,0,0-.28,1.27v3.7h-2.25"/><g class="cls-14"><rect x="156.69" y="-2.07" width="16.61" height="19.37"/></g><path d="M176.55,5.38v6.91h-2.21v-1a2.67,2.67,0,0,1-.92.85,2.48,2.48,0,0,1-1.18.27,2.31,2.31,0,0,1-1.72-.59,2.39,2.39,0,0,1-.58-1.74V5.38h2.26V9.25a2.27,2.27,0,0,0,.21,1.17,0.82,0.82,0,0,0,.74.32,1,1,0,0,0,.86-0.39,2.31,2.31,0,0,0,.27-1.27V5.38h2.26"/><g class="cls-15"><rect x="164.94" y="0.38" width="16.61" height="17.08"/></g><rect x="178.27" y="2.93" width="2.26" height="9.37"/><g class="cls-16"><rect x="173.27" y="-2.07" width="12.26" height="19.37"/></g><path d="M184.18,8.1h2.57a1.54,1.54,0,0,0-.35-1,1.19,1.19,0,0,0-.93-0.38,1.14,1.14,0,0,0-.89.37,1.78,1.78,0,0,0-.4,1.06h0Zm2.46,2h2.17a3,3,0,0,1-1.2,1.76,3.78,3.78,0,0,1-2.22.62,3.35,3.35,0,0,1-2.54-1,3.69,3.69,0,0,1-.94-2.66,3.8,3.8,0,0,1,.94-2.72,3.75,3.75,0,0,1,5.12,0A4,4,0,0,1,188.93,9c0,0.11,0,.2,0,0.25s0,0.11,0,.15h-4.67a1.73,1.73,0,0,0,.31,1.11,1.12,1.12,0,0,0,.93.39,1.35,1.35,0,0,0,.74-0.19,1,1,0,0,0,.41-0.56h0Z"/><g class="cls-17"><rect x="176.93" y="0.15" width="17.01" height="17.36"/></g><polyline points="194.06 12.29 194.06 2.93 196.42 2.93 196.42 6.5 199.75 2.93 202.63 2.93 198.84 6.86 202.72 12.29 199.86 12.29 197.23 8.54 196.42 9.35 196.42 12.29 194.06 12.29"/><g class="cls-18"><rect x="189.06" y="-2.07" width="18.66" height="19.37"/></g><path d="M205.28,8.83a2.54,2.54,0,0,0,.35,1.46,1.13,1.13,0,0,0,1,.51,1.14,1.14,0,0,0,1-.51A2.54,2.54,0,0,0,208,8.83a2.5,2.5,0,0,0-.35-1.44,1.24,1.24,0,0,0-2,0,2.55,2.55,0,0,0-.34,1.45h0Zm-2.32,0a3.68,3.68,0,0,1,1-2.71,4.19,4.19,0,0,1,5.39,0,3.67,3.67,0,0,1,1,2.71,3.68,3.68,0,0,1-1,2.72,4.2,4.2,0,0,1-5.39,0,3.71,3.71,0,0,1-1-2.72h0Z"/><g class="cls-19"><rect x="197.96" y="0.13" width="17.33" height="17.39"/></g><path d="M211.66,12.29V5.38h2.21V6.33a2.36,2.36,0,0,1,.87-0.84A2.56,2.56,0,0,1,216,5.21a2.26,2.26,0,0,1,1.76.61,2.94,2.94,0,0,1,.54,2v4.49H216V8.81a3.57,3.57,0,0,0-.21-1.55,0.8,0.8,0,0,0-.75-0.33,1,1,0,0,0-.87.4,2.28,2.28,0,0,0-.27,1.27v3.7h-2.25"/><g class="cls-20"><rect x="206.66" y="0.21" width="16.61" height="17.08"/></g><path d="M219.57,10.18h2.27a0.9,0.9,0,0,0,.34.69,1.42,1.42,0,0,0,.87.23,1.33,1.33,0,0,0,.75-0.19,0.57,0.57,0,0,0,.27-0.5c0-.27-0.36-0.49-1.07-0.67q-0.57-.15-0.92-0.26a4.83,4.83,0,0,1-1.77-.89,1.61,1.61,0,0,1-.48-1.21,2,2,0,0,1,.8-1.65,3.61,3.61,0,0,1,2.21-.6,4.37,4.37,0,0,1,2.32.51,1.93,1.93,0,0,1,.91,1.53h-2.17a0.77,0.77,0,0,0-.32-0.52,1.21,1.21,0,0,0-.69-0.17,1.08,1.08,0,0,0-.62.16,0.51,0.51,0,0,0-.22.44q0,0.41,1.11.71l0.41,0.11q1,0.3,1.43.45a2.5,2.5,0,0,1,.58.28,1.75,1.75,0,0,1,.55.64,1.89,1.89,0,0,1,.18.85,2,2,0,0,1-.88,1.76,4.12,4.12,0,0,1-2.45.63,4.25,4.25,0,0,1-2.43-.61,2.2,2.2,0,0,1-1-1.72"/><g class="cls-21"><rect x="214.57" y="0.13" width="16.73" height="17.38"/></g><path d="M227,6.75V5.38H228v-2h2.26v2h1.16V6.75h-1.16v3a1.57,1.57,0,0,0,.18.91,0.81,0.81,0,0,0,.67.22h0.29V12.3c-0.24,0-.47.08-0.7,0.11a5.41,5.41,0,0,1-.66,0,1.9,1.9,0,0,1-1.61-.58A4.58,4.58,0,0,1,228,9.42V6.75H227"/><g class="cls-22"><rect x="222.04" y="-1.58" width="14.35" height="19.03"/></g><path d="M236.6,9a3,3,0,0,1-.92.3l-0.48.11a1.24,1.24,0,0,0-.57.29,0.67,0.67,0,0,0-.17.48,0.79,0.79,0,0,0,.23.6,0.82,0.82,0,0,0,.6.23,1.36,1.36,0,0,0,.95-0.33,1.13,1.13,0,0,0,.36-0.87V9h0Zm2.49,3.25h-2.31c0-.11,0-0.23-0.07-0.34l-0.05-.37a3.28,3.28,0,0,1-1,.7,3,3,0,0,1-1.18.23,2.21,2.21,0,0,1-1.58-.55,2,2,0,0,1-.58-1.49,2.1,2.1,0,0,1,.46-1.4,2.48,2.48,0,0,1,1.38-.75c0.34-.08.77-0.16,1.29-0.25,0.78-.13,1.17-0.31,1.17-0.56V7.36a0.52,0.52,0,0,0-.22-0.46,1.19,1.19,0,0,0-.67-0.16,1.34,1.34,0,0,0-.77.2,0.85,0.85,0,0,0-.35.58H232.5a2.44,2.44,0,0,1,1-1.74,3.91,3.91,0,0,1,2.29-.57,4.78,4.78,0,0,1,1.56.22,2.12,2.12,0,0,1,1,.67,2,2,0,0,1,.35.77,7.13,7.13,0,0,1,.1,1.44v2.62a2.44,2.44,0,0,0,.09.74,0.53,0.53,0,0,0,.26.35v0.26h0Z"/><g class="cls-23"><rect x="227.3" y="0.21" width="16.79" height="17.3"/></g><path d="M240.44,12.29V5.38h2.21V6.33a2.4,2.4,0,0,1,.87-0.84,2.56,2.56,0,0,1,1.23-.27,2.26,2.26,0,0,1,1.76.61,2.93,2.93,0,0,1,.54,2v4.49h-2.27V8.81a3.65,3.65,0,0,0-.2-1.55,0.81,0.81,0,0,0-.75-0.33,1,1,0,0,0-.87.4,2.27,2.27,0,0,0-.27,1.27v3.7h-2.25"/><g class="cls-24"><rect x="235.44" y="0.21" width="16.61" height="17.08"/></g><polyline points="248.29 12.29 248.29 10.63 251.73 7.01 248.51 7.01 248.51 5.38 254.55 5.38 254.55 7.01 251.14 10.63 254.67 10.63 254.67 12.29 248.29 12.29"/><g class="cls-25"><rect x="243.29" y="0.38" width="16.38" height="16.91"/></g><polyline points="114.56 28.44 114.56 19.85 111.65 19.85 111.65 19.08 118.34 19.08 118.34 19.85 115.44 19.85 115.44 28.44 114.56 28.44"/><g class="cls-26"><rect x="106.65" y="14.08" width="16.69" height="19.36"/></g><path d="M119.08,24.58h4.23a2.79,2.79,0,0,0-.61-1.76,1.86,1.86,0,0,0-1.48-.64,1.94,1.94,0,0,0-1.51.65,2.74,2.74,0,0,0-.64,1.74h0Zm0,0.63v0a3,3,0,0,0,.6,2,2,2,0,0,0,1.6.73,2.06,2.06,0,0,0,1.33-.43,1.8,1.8,0,0,0,.65-1.17H124a2.42,2.42,0,0,1-.89,1.65,2.94,2.94,0,0,1-1.92.62,2.66,2.66,0,0,1-2.16-.93,3.91,3.91,0,0,1-.78-2.59,4,4,0,0,1,.79-2.64,2.68,2.68,0,0,1,2.19-.95,2.61,2.61,0,0,1,2.12.91,3.82,3.82,0,0,1,.76,2.53v0.26h-5.05Z"/><g class="cls-27"><rect x="113.27" y="16.51" width="15.85" height="17.11"/></g><path d="M130.37,26.11h0.78a2.71,2.71,0,0,1-.86,1.83,2.83,2.83,0,0,1-2,.67,2.68,2.68,0,0,1-2.16-.94,3.84,3.84,0,0,1-.79-2.56,4,4,0,0,1,.8-2.64,2.73,2.73,0,0,1,2.2-1,2.75,2.75,0,0,1,1.87.64,2.3,2.3,0,0,1,.79,1.68h-0.75a1.79,1.79,0,0,0-.62-1.18,2.09,2.09,0,0,0-2.9.32A3.3,3.3,0,0,0,126.2,25a3.4,3.4,0,0,0,.6,2.12,1.93,1.93,0,0,0,1.61.78,1.86,1.86,0,0,0,1.32-.49,2.18,2.18,0,0,0,.65-1.35"/><g class="cls-28"><rect x="120.39" y="16.51" width="15.77" height="17.1"/></g><path d="M132.61,28.44V19.08h0.8v3.66a2.55,2.55,0,0,1,.93-0.92,2.62,2.62,0,0,1,1.29-.31,2.79,2.79,0,0,1,1.21.25,1.91,1.91,0,0,1,.82.7,1.77,1.77,0,0,1,.21.59,8.51,8.51,0,0,1,.06,1.27v4.11h-0.79v-4.1a2.8,2.8,0,0,0-.36-1.7,1.62,1.62,0,0,0-1.29-.43,2,2,0,0,0-1.51.6,2.31,2.31,0,0,0-.56,1.63v4h-0.8"/><g class="cls-29"><rect x="127.61" y="14.08" width="15.31" height="19.36"/></g><path d="M139.83,28.44V21.68h0.76v1.08a2.64,2.64,0,0,1,.94-0.94,2.6,2.6,0,0,1,1.3-.31,2.9,2.9,0,0,1,1.23.25,1.87,1.87,0,0,1,.81.71,1.65,1.65,0,0,1,.21.57,6.62,6.62,0,0,1,.06,1.09v4.31h-0.81V24.25a2.56,2.56,0,0,0-.36-1.61,1.64,1.64,0,0,0-1.29-.42,1.93,1.93,0,0,0-1.5.6,2.34,2.34,0,0,0-.55,1.64v4h-0.79"/><g class="cls-30"><rect x="134.83" y="16.51" width="15.3" height="16.93"/></g><path d="M147.06,28.44h0.77V21.68h-0.77v6.76h0Zm0-8.19h0.77V19.08h-0.77v1.18h0Z"/><g class="cls-31"><rect x="142.06" y="14.08" width="10.77" height="19.37"/></g><polyline points="149.79 28.44 149.79 19.08 150.57 19.08 150.57 24.96 153.95 21.68 154.94 21.68 152.39 24.16 155.26 28.44 154.36 28.44 151.85 24.68 150.57 25.91 150.57 28.44 149.79 28.44"/><g class="cls-32"><rect x="144.79" y="14.08" width="15.47" height="19.36"/></g><path d="M156.72,30.25v-0.5a0.88,0.88,0,0,0,.31-0.35,1.22,1.22,0,0,0,.09-0.51V28.44h-0.4V27.28h0.86v1.56a1.71,1.71,0,0,1-.2.9,1.34,1.34,0,0,1-.66.51"/><g class="cls-33"><rect x="151.72" y="22.28" width="10.86" height="12.97"/></g><polyline points="164.84 28.44 162.42 19.08 163.27 19.08 165.35 27.15 167.42 19.08 168.48 19.08 170.52 27.15 172.63 19.08 173.45 19.08 170.99 28.44 170.05 28.44 167.93 20.12 165.77 28.44 164.84 28.44"/><g class="cls-34"><rect x="157.42" y="14.08" width="21.03" height="19.36"/></g><path d="M174.77,28.44h0.78V21.68h-0.78v6.76h0Zm0-8.19h0.78V19.08h-0.78v1.18h0Z"/><g class="cls-35"><rect x="169.77" y="14.08" width="10.78" height="19.37"/></g><path d="M177.5,28.44V21.68h0.76v1.18a2.21,2.21,0,0,1,.81-1,2.27,2.27,0,0,1,1.27-.34h0.09v0.82h-0.1a1.87,1.87,0,0,0-1.52.6,2.7,2.7,0,0,0-.5,1.79v3.72H177.5"/><g class="cls-36"><rect x="172.49" y="16.51" width="12.93" height="16.93"/></g><path d="M183,19.74v1.94h1.25v0.63H183v4.93a1,1,0,0,0,.11.57,0.46,0.46,0,0,0,.39.14l0.27,0,0.48-.09v0.62a4.74,4.74,0,0,1-.52.11,3,3,0,0,1-.45,0,1,1,0,0,1-.82-0.3,1.73,1.73,0,0,1-.24-1.07V22.32h-0.92V21.68h0.92V19.74H183"/><g class="cls-37"><rect x="176.34" y="14.74" width="12.95" height="18.87"/></g><path d="M185.32,26.34h0.78a1.53,1.53,0,0,0,.53,1.13,1.88,1.88,0,0,0,1.28.44,2.31,2.31,0,0,0,1.33-.33,1,1,0,0,0,.49-0.9q0-.82-1.8-1.25h0a5,5,0,0,1-1.94-.77,1.45,1.45,0,0,1-.49-1.17,1.76,1.76,0,0,1,.64-1.41,2.53,2.53,0,0,1,1.68-.54,2.71,2.71,0,0,1,1.81.57,2.16,2.16,0,0,1,.74,1.58h-0.8a1.46,1.46,0,0,0-.51-1.07,1.92,1.92,0,0,0-1.26-.38,1.78,1.78,0,0,0-1.11.32,1,1,0,0,0-.41.84q0,0.9,1.84,1.33l0.36,0.08a3.7,3.7,0,0,1,1.61.72,1.56,1.56,0,0,1,.45,1.19,1.68,1.68,0,0,1-.71,1.4,3,3,0,0,1-1.87.54,2.75,2.75,0,0,1-1.89-.62,2.2,2.2,0,0,1-.74-1.67"/><g class="cls-38"><rect x="180.32" y="16.51" width="15.21" height="17.11"/></g><path d="M196.78,26.11h0.78a2.69,2.69,0,0,1-.86,1.83,2.82,2.82,0,0,1-2,.67,2.67,2.67,0,0,1-2.16-.94,3.83,3.83,0,0,1-.79-2.56,4,4,0,0,1,.8-2.64,2.72,2.72,0,0,1,2.2-1,2.75,2.75,0,0,1,1.87.64,2.3,2.3,0,0,1,.79,1.68h-0.75a1.79,1.79,0,0,0-.62-1.18,2.09,2.09,0,0,0-2.9.32,3.28,3.28,0,0,0-.6,2.07,3.39,3.39,0,0,0,.6,2.12,1.93,1.93,0,0,0,1.61.78,1.86,1.86,0,0,0,1.32-.49,2.2,2.2,0,0,0,.65-1.35"/><g class="cls-39"><rect x="186.8" y="16.51" width="15.77" height="17.1"/></g><path d="M199,28.44V19.08h0.79v3.66a2.56,2.56,0,0,1,.93-0.92,2.63,2.63,0,0,1,1.29-.31,2.8,2.8,0,0,1,1.21.25,1.89,1.89,0,0,1,.81.7,1.74,1.74,0,0,1,.21.59,8.5,8.5,0,0,1,.06,1.27v4.11h-0.79v-4.1a2.77,2.77,0,0,0-.36-1.7,1.62,1.62,0,0,0-1.29-.43,2,2,0,0,0-1.51.6,2.31,2.31,0,0,0-.56,1.63v4H199"/><g class="cls-40"><rect x="194.03" y="14.08" width="15.31" height="19.36"/></g><path d="M210.55,24.9a4,4,0,0,1-.8.19c-0.33,0-.85.09-1.57,0.13a2.6,2.6,0,0,0-1.13.56,1.16,1.16,0,0,0-.38.87,1.14,1.14,0,0,0,.41.92,1.68,1.68,0,0,0,1.12.34,2.52,2.52,0,0,0,1.71-.56,1.91,1.91,0,0,0,.64-1.52V24.9h0Zm0.05,2.56a3.66,3.66,0,0,1-1.16.86,3.18,3.18,0,0,1-1.34.29,2.39,2.39,0,0,1-1.63-.53,2,2,0,0,1-.33-2.43,1.89,1.89,0,0,1,.8-0.68,6.52,6.52,0,0,1,2-.38l0.41,0,0.22,0a1,1,0,0,0,1-.83,1.43,1.43,0,0,0-.39-1.13,2,2,0,0,0-1.29-.34,2.22,2.22,0,0,0-1.39.38A1.42,1.42,0,0,0,207,23.7H206.2a2,2,0,0,1,.74-1.6,3,3,0,0,1,1.94-.59,2.84,2.84,0,0,1,1.84.52,1.87,1.87,0,0,1,.63,1.53v3.69a0.82,0.82,0,0,0,.1.52,0.53,0.53,0,0,0,.38.1h0.29v0.58l-0.29,0-0.26,0a1,1,0,0,1-.73-0.23,0.93,0.93,0,0,1-.24-0.7V27.46h0Z"/><g class="cls-41"><rect x="200.86" y="16.51" width="16.26" height="17.1"/></g><path d="M213.6,28.44V22.32h-1V21.68h1V20.45a1.44,1.44,0,0,1,.38-1.11A1.77,1.77,0,0,1,215.2,19h0.19l0.21,0v0.7h-0.08l-0.36,0a0.86,0.86,0,0,0-.62.18,0.92,0.92,0,0,0-.18.64v1.16h1.23v0.63h-1.23v6.12H213.6"/><g class="cls-42"><rect x="207.61" y="13.99" width="12.99" height="19.45"/></g><path d="M218.23,19.74v1.94h1.25v0.63h-1.25v4.93a1,1,0,0,0,.11.57,0.45,0.45,0,0,0,.38.14l0.27,0,0.48-.09v0.62a4.81,4.81,0,0,1-.52.11,3,3,0,0,1-.45,0,1,1,0,0,1-.82-0.3,1.73,1.73,0,0,1-.24-1.07V22.32h-0.92V21.68h0.92V19.74h0.78"/><g class="cls-43"><rect x="211.53" y="14.74" width="12.96" height="18.87"/></g><path d="M229.48,21.68v6.76h-0.76V27.36a2.6,2.6,0,0,1-.94,1,2.68,2.68,0,0,1-1.32.31,2.26,2.26,0,0,1-1.72-.6,2.5,2.5,0,0,1-.58-1.79V21.68H225V26a2.14,2.14,0,0,0,.38,1.43,1.63,1.63,0,0,0,1.27.43,2,2,0,0,0,1.54-.6,2.27,2.27,0,0,0,.56-1.63v-4h0.78"/><g class="cls-44"><rect x="219.17" y="16.68" width="15.31" height="16.94"/></g><path d="M231.41,28.44V21.68h0.76v1.08a2.63,2.63,0,0,1,.94-0.94,2.59,2.59,0,0,1,1.29-.31,2.89,2.89,0,0,1,1.23.25,1.83,1.83,0,0,1,.8.71,1.67,1.67,0,0,1,.21.57,6.68,6.68,0,0,1,.06,1.09v4.31H235.9V24.25a2.57,2.57,0,0,0-.37-1.61,1.64,1.64,0,0,0-1.29-.42,1.93,1.93,0,0,0-1.5.6,2.33,2.33,0,0,0-.55,1.64v4h-0.79"/><g class="cls-45"><rect x="226.41" y="16.51" width="15.3" height="16.93"/></g><path d="M239.11,25.07a3.3,3.3,0,0,0,.6,2.11,2,2,0,0,0,1.67.75,2.05,2.05,0,0,0,1.7-.74,3.31,3.31,0,0,0,.59-2.12,3.32,3.32,0,0,0-.6-2.12,2.05,2.05,0,0,0-1.7-.75,2,2,0,0,0-1.68.74,3.33,3.33,0,0,0-.59,2.12h0Zm5.29-6v9.36h-0.78V27.3a2.62,2.62,0,0,1-1,1,2.82,2.82,0,0,1-1.39.33,2.66,2.66,0,0,1-2.16-1,3.93,3.93,0,0,1-.79-2.6,3.9,3.9,0,0,1,.81-2.6,3,3,0,0,1,3.58-.62,2.51,2.51,0,0,1,1,1V19.08h0.78Z"/><g class="cls-46"><rect x="233.27" y="14.08" width="16.12" height="19.55"/></g><path d="M257,28.44l-0.09-1.65a3.2,3.2,0,0,1-1.29,1.41,4.17,4.17,0,0,1-5-.82,5.45,5.45,0,0,1-1.12-3.63,5.29,5.29,0,0,1,1.14-3.59,3.9,3.9,0,0,1,3.1-1.31,4.24,4.24,0,0,1,2.65.78,3.21,3.21,0,0,1,1.23,2.19h-0.88a2.53,2.53,0,0,0-1-1.63,3.23,3.23,0,0,0-2-.59,3.05,3.05,0,0,0-2.5,1.08,4.73,4.73,0,0,0-.88,3.07,4.81,4.81,0,0,0,.88,3.05,2.89,2.89,0,0,0,2.4,1.13A3.16,3.16,0,0,0,256,27a3.57,3.57,0,0,0,.86-2.56v0h-3.09V23.63h3.91v4.81H257"/><g class="cls-47"><rect x="244.41" y="13.83" width="18.24" height="19.87"/></g><path d="M260.14,24.58h4.23a2.78,2.78,0,0,0-.61-1.76,1.86,1.86,0,0,0-1.48-.64,2,2,0,0,0-1.51.65,2.74,2.74,0,0,0-.64,1.74h0Zm0,0.63v0a3,3,0,0,0,.6,2,2,2,0,0,0,1.6.73,2,2,0,0,0,1.33-.43,1.79,1.79,0,0,0,.65-1.17h0.78a2.42,2.42,0,0,1-.89,1.65,2.94,2.94,0,0,1-1.92.62,2.67,2.67,0,0,1-2.16-.93,3.91,3.91,0,0,1-.78-2.59,4,4,0,0,1,.79-2.64,2.69,2.69,0,0,1,2.18-.95,2.62,2.62,0,0,1,2.12.91,3.84,3.84,0,0,1,.76,2.53v0.26h-5.05Z"/><g class="cls-48"><rect x="254.33" y="16.51" width="15.85" height="17.11"/></g><path d="M266.44,26.34h0.78a1.53,1.53,0,0,0,.53,1.13,1.88,1.88,0,0,0,1.28.44,2.32,2.32,0,0,0,1.33-.33,1,1,0,0,0,.49-0.9q0-.82-1.8-1.25h0a5,5,0,0,1-1.94-.77,1.45,1.45,0,0,1-.49-1.17,1.76,1.76,0,0,1,.65-1.41,2.52,2.52,0,0,1,1.68-.54,2.72,2.72,0,0,1,1.81.57,2.16,2.16,0,0,1,.74,1.58h-0.79a1.48,1.48,0,0,0-.51-1.07,1.92,1.92,0,0,0-1.26-.38,1.76,1.76,0,0,0-1.1.32,1,1,0,0,0-.41.84q0,0.9,1.84,1.33l0.36,0.08a3.72,3.72,0,0,1,1.61.72,1.55,1.55,0,0,1,.45,1.19,1.68,1.68,0,0,1-.71,1.4,3,3,0,0,1-1.86.54,2.76,2.76,0,0,1-1.89-.62,2.2,2.2,0,0,1-.74-1.67"/><g class="cls-49"><rect x="261.44" y="16.51" width="15.21" height="17.11"/></g><path d="M274.21,19.74v1.94h1.26v0.63h-1.26v4.93a1,1,0,0,0,.11.57,0.46,0.46,0,0,0,.39.14l0.27,0,0.48-.09v0.62a4.87,4.87,0,0,1-.52.11,3,3,0,0,1-.45,0,1,1,0,0,1-.82-0.3,1.74,1.74,0,0,1-.24-1.07V22.32h-0.92V21.68h0.92V19.74h0.78"/><g class="cls-50"><rect x="267.51" y="14.74" width="12.96" height="18.87"/></g><path d="M281.23,24.9a3.94,3.94,0,0,1-.8.19c-0.32,0-.84.09-1.57,0.13a2.59,2.59,0,0,0-1.13.56,1.16,1.16,0,0,0-.38.87,1.14,1.14,0,0,0,.41.92,1.68,1.68,0,0,0,1.12.34,2.52,2.52,0,0,0,1.71-.56,1.91,1.91,0,0,0,.64-1.52V24.9h0Zm0.05,2.56a3.71,3.71,0,0,1-1.16.86,3.18,3.18,0,0,1-1.34.29,2.39,2.39,0,0,1-1.63-.53,2,2,0,0,1-.33-2.43,1.89,1.89,0,0,1,.8-0.68,6.5,6.5,0,0,1,2-.38l0.41,0,0.22,0a1,1,0,0,0,1-.83,1.43,1.43,0,0,0-.39-1.13,2,2,0,0,0-1.29-.34,2.21,2.21,0,0,0-1.39.38,1.44,1.44,0,0,0-.52,1.12h-0.77a2,2,0,0,1,.74-1.6,3,3,0,0,1,1.94-.59,2.83,2.83,0,0,1,1.84.52,1.87,1.87,0,0,1,.63,1.53v3.69a0.81,0.81,0,0,0,.1.52,0.53,0.53,0,0,0,.38.1h0.29v0.58l-0.29,0-0.26,0a1,1,0,0,1-.73-0.23,0.94,0.94,0,0,1-.24-0.7V27.46h0Z"/><g class="cls-51"><rect x="271.54" y="16.51" width="16.26" height="17.1"/></g><rect x="284.11" y="19.08" width="0.78" height="9.37"/><g class="cls-52"><rect x="279.11" y="14.08" width="10.78" height="19.37"/></g><path d="M287.91,19.74v1.94h1.25v0.63h-1.25v4.93a1,1,0,0,0,.11.57,0.46,0.46,0,0,0,.39.14l0.27,0,0.48-.09v0.62a4.71,4.71,0,0,1-.52.11,3,3,0,0,1-.45,0,1,1,0,0,1-.83-0.3,1.74,1.74,0,0,1-.24-1.07V22.32h-0.92V21.68h0.92V19.74h0.78"/><g class="cls-53"><rect x="281.21" y="14.74" width="12.96" height="18.87"/></g><path d="M295.84,21.68v6.76h-0.76V27.36a2.6,2.6,0,0,1-.94,1,2.67,2.67,0,0,1-1.32.31,2.26,2.26,0,0,1-1.72-.6,2.5,2.5,0,0,1-.58-1.79V21.68h0.78V26a2.14,2.14,0,0,0,.38,1.43,1.63,1.63,0,0,0,1.27.43,2,2,0,0,0,1.54-.6,2.27,2.27,0,0,0,.56-1.63v-4h0.78"/><g class="cls-54"><rect x="285.53" y="16.68" width="15.31" height="16.94"/></g><path d="M297.77,28.44V21.68h0.76v1.08a2.63,2.63,0,0,1,.94-0.94,2.59,2.59,0,0,1,1.29-.31,2.89,2.89,0,0,1,1.23.25,1.83,1.83,0,0,1,.8.71A1.67,1.67,0,0,1,303,23a6.69,6.69,0,0,1,.06,1.09v4.31h-0.81V24.25a2.56,2.56,0,0,0-.37-1.61,1.64,1.64,0,0,0-1.29-.42,1.93,1.93,0,0,0-1.5.6,2.33,2.33,0,0,0-.55,1.64v4h-0.79"/><g class="cls-55"><rect x="292.77" y="16.51" width="15.3" height="16.93"/></g><path d="M305.46,25.07a3.3,3.3,0,0,0,.61,2.11,2,2,0,0,0,1.67.77,2,2,0,0,0,1.69-.76,3.32,3.32,0,0,0,.6-2.12,3.29,3.29,0,0,0-.6-2.12,2.28,2.28,0,0,0-3.38,0,3.34,3.34,0,0,0-.59,2.12h0Zm5.29-3.39v6.41a3.11,3.11,0,0,1-.81,2.33,3.3,3.3,0,0,1-2.39.79,3.15,3.15,0,0,1-1.91-.53,1.89,1.89,0,0,1-.8-1.45h0.8a1.26,1.26,0,0,0,.55.95,2.35,2.35,0,0,0,1.34.33,2.52,2.52,0,0,0,1.84-.6,2.42,2.42,0,0,0,.61-1.79V27.28a2.82,2.82,0,0,1-1,1,2.69,2.69,0,0,1-1.36.33,2.72,2.72,0,0,1-2.2-1,3.92,3.92,0,0,1-.8-2.6,3.91,3.91,0,0,1,.81-2.6,2.72,2.72,0,0,1,2.19-1,2.68,2.68,0,0,1,1.37.34,2.74,2.74,0,0,1,1,1V21.68h0.78Z"/><g class="cls-56"><rect x="299.63" y="16.51" width="16.12" height="19.7"/></g></svg>